<svg width="459" height="415" viewBox="0 0 459 415" fill="none" xmlns="http://www.w3.org/2000/svg">
<path d="M0.450082 404.354C-1.01099 408.524 1.18478 413.089 5.35449 414.55C9.52419 416.011 14.0888 413.815 15.5499 409.646L0.450082 404.354ZM441.5 131.5L371.486 191.76L458.68 222.264L441.5 131.5ZM382.595 297.639L374.791 299.398L382.595 297.639ZM383.363 297.683L390.914 300.325L383.363 297.683ZM316.599 8.3195L324.152 10.9553L316.599 8.3195ZM317.367 8.3633L325.171 6.60358L317.367 8.3633ZM218.548 287.484L224.562 282.209L218.548 287.484ZM219.226 287.352L211.673 284.716L219.226 287.352ZM97.8014 150.72L90.2515 148.074L97.8014 150.72ZM98.4796 150.588L92.4652 155.863L98.4796 150.588ZM15.5499 409.646L105.351 153.365L90.2515 148.074L0.450082 404.354L15.5499 409.646ZM92.4652 155.863L212.533 292.759L224.562 282.209L104.494 145.313L92.4652 155.863ZM226.779 289.988L324.152 10.9553L309.046 5.68365L211.673 284.716L226.779 289.988ZM309.563 10.123L374.791 299.398L390.399 295.879L325.171 6.60358L309.563 10.123ZM390.914 300.325L425.276 202.103L410.173 196.819L375.812 295.041L390.914 300.325ZM374.791 299.398C376.648 307.633 388.127 308.292 390.914 300.325L375.812 295.041C378.333 287.833 388.719 288.429 390.399 295.879L374.791 299.398ZM324.152 10.9553C321.635 18.1687 311.243 17.5757 309.563 10.123L325.171 6.60358C323.313 -1.63359 311.828 -2.28902 309.046 5.68365L324.152 10.9553ZM212.533 292.759C216.776 297.597 224.659 296.063 226.779 289.988L211.673 284.716C213.591 279.22 220.723 277.832 224.562 282.209L212.533 292.759ZM105.351 153.365C103.428 158.855 96.3012 160.237 92.4652 155.863L104.494 145.313C100.254 140.479 92.3776 142.006 90.2515 148.074L105.351 153.365Z" fill="#00FF94"/>
</svg>
